<svg width="290" height="234" viewBox="0 0 290 234" fill="none" xmlns="http://www.w3.org/2000/svg">
<path fill-rule="evenodd" clip-rule="evenodd" d="M0 109H25V79H41.5L66.5 109H91.5V46C91.5 33.5 83.5 2.76826e-05 45.5 0C12.4883 -2.40486e-05 0 25.5001 0 46V109ZM25 44.5001V53.0001H36C54.2173 52.0658 62.3985 63.3513 65.8419 68.1014C66.0841 68.4355 66.3029 68.7372 66.5 69.0001V44.5001C65.6667 38.1667 60.3 25.4001 45.5 25.0001C30.7 24.6001 25.6667 37.8334 25 44.5001Z" fill="white"/>
<path fill-rule="evenodd" clip-rule="evenodd" d="M99.5 108.5V28.5001C99.6667 21.5001 102 1.00014 133.5 1.00014H146.5L147.082 0.999922C160.204 0.992564 183.588 0.97945 189.5 33.0001C193.766 56.107 179.413 64.2312 171.176 68.8942C169.431 69.8816 167.961 70.7138 167 71.5001C168.667 75.5001 175.3 83.7001 188.5 84.5001L188 109C187.635 109 187.243 109.004 186.827 109.009C178.124 109.101 158.473 109.311 137 74.0001H125V109H99.5V108.5ZM125 30.5001V49.0001H151C169.5 49.0001 169 26.5001 151 26.5001H129C126.791 26.5001 125 28.2909 125 30.5001Z" fill="white"/>
<path fill-rule="evenodd" clip-rule="evenodd" d="M192.5 57.5004C192.5 32.0001 207 5.97995e-05 241 6.10352e-05C272.5 6.21799e-05 290 31.5001 290 57.5004C290 73.0001 279.5 110.5 241 110.5C202.567 110.5 191.5 74.5001 192.5 57.5004ZM241 24.5001C220.6 24.1001 217 46.3336 217 57.5004C218.167 67.167 223.4 86.5001 241 86.5001C258.6 86.5001 264.167 67.167 265 57.5004C265.333 46.667 261.4 24.9001 241 24.5001Z" fill="white"/>
<path d="M148.5 134L160.5 137.5L174 111.5L150 105L148.5 134Z" fill="white"/>
<path d="M15 233.5H41.5V145L60 212.5H88L106 146.5V233.5H132.5V146.5C132.5 120 88 102.5 78 146.5L74 160.5L69.5 143.5C60 111 22 110.5 15 145V233.5Z" fill="white"/>
<path d="M143 233.5H169.5V142H143V233.5Z" fill="white"/>
<path fill-rule="evenodd" clip-rule="evenodd" d="M178.5 233H205.003V201.624H222.495L248.997 233H275.5V167.11C275.5 154.037 267.019 119 226.735 119C191.739 119 178.5 145.67 178.5 167.11V233ZM205.003 165.541V174.431H216.664C235.976 173.454 244.648 185.256 248.299 190.224C248.556 190.574 248.788 190.89 248.997 191.165V165.541C248.114 158.918 242.425 145.565 226.735 145.147C211.045 144.729 205.709 158.569 205.003 165.541Z" fill="white"/>
</svg>
